PathFileType	4	(X/Y/Z)	 s03c0403.trc
DataRate	CameraRate	NumFrames	NumMarkers	Units	OrigDataRate	OrigDataStartFrame	OrigNumFrames
200	200	5	52	mm	200	751	2000
Frame#	Time	racr			lacr			c7			jug			rlel			rdr			llel			ldr			s2			lic			ric			lasi			rasi			rpsi			lpsi			rgt			lgt			rth1			rth2			rth3			rth4			rlfc			rmfc			rsh1			rsh2			rsh3			rsh4			rlmal			rmmal			rcal			rtoe			rmt5			rmt1			lth1			lth2			lth4			lth3			llfc			lmfc			lsh1			lsh2			lsh3			lsh4			llmal			lmmal			lcal			ltoe			lmt1			lmt5			SBIKE			LBIKE			RBIKE			
		X1	Y1	Z1	X2	Y2	Z2	X3	Y3	Z3	X4	Y4	Z4	X5	Y5	Z5	X6	Y6	Z6	X7	Y7	Z7	X8	Y8	Z8	X9	Y9	Z9	X10	Y10	Z10	X11	Y11	Z11	X12	Y12	Z12	X13	Y13	Z13	X14	Y14	Z14	X15	Y15	Z15	X16	Y16	Z16	X17	Y17	Z17	X18	Y18	Z18	X19	Y19	Z19	X20	Y20	Z20	X21	Y21	Z21	X22	Y22	Z22	X23	Y23	Z23	X24	Y24	Z24	X25	Y25	Z25	X26	Y26	Z26	X27	Y27	Z27	X28	Y28	Z28	X29	Y29	Z29	X30	Y30	Z30	X31	Y31	Z31	X32	Y32	Z32	X33	Y33	Z33	X34	Y34	Z34	X35	Y35	Z35	X36	Y36	Z36	X37	Y37	Z37	X38	Y38	Z38	X39	Y39	Z39	X40	Y40	Z40	X41	Y41	Z41	X42	Y42	Z42	X43	Y43	Z43	X44	Y44	Z44	X45	Y45	Z45	X46	Y46	Z46	X47	Y47	Z47	X48	Y48	Z48	X49	Y49	Z49	X50	Y50	Z50	X51	Y51	Z51	X52	Y52	Z52	
751	3.7550	768.300311	1408.156574	-1.225464	830.466721	1438.935595	-336.583551	755.413262	1528.533946	-169.014973	757.472759	1356.224144	-175.765445	585.809031	1194.276152	98.909256	740.912069	986.924361	4.945886	665.044734	1242.624119	-497.441645	750.276397	980.462393	-424.353583	211.998685	1292.255850	-246.336890	405.855639	1313.236357	-406.606396	367.248827	1287.245742	-44.726157	415.634879	1236.767397	-366.421296	394.066766	1217.845183	-92.548199	242.955507	1333.652560	-191.472325	252.707770	1341.355982	-276.371095	278.940506	1178.901960	-50.677540	358.590471	1217.549336	-434.997760	289.164175	1026.553373	-30.206266	322.526777	944.372359	-23.327749	316.143750	859.118800	-32.866103	359.207921	950.110533	-26.545803	326.387010	734.190423	-64.288840	350.970956	712.029242	-176.251831	264.478222	582.229449	-32.622800	262.781615	492.864041	-39.218745	216.279827	417.874970	-41.123936	294.975698	485.015169	-59.294435	175.680606	296.636650	-56.216120	246.731059	312.928664	-121.529150	106.695546	293.102433	-94.616379	356.939499	107.913822	-107.767263	248.667641	157.011766	-34.596107	282.532872	168.125127	-145.820773	461.198386	1106.610564	-448.638580	535.193334	1061.844902	-442.293725	557.298426	1084.647975	-426.118132	576.954106	982.712595	-437.873137	661.592492	882.614304	-412.256383	647.258416	871.086174	-280.906245	517.565429	791.696020	-437.753665	458.527064	732.975365	-418.594103	371.367680	706.668918	-420.473702	473.852826	710.498073	-392.204397	259.552072	648.287763	-408.258958	285.329328	642.885486	-313.616091	175.360417	657.294504	-363.728173	400.564063	445.372444	-346.303562	324.038306	505.862048	-308.089154	300.450789	506.563432	-423.570714	-211.468703	947.478969	-227.003441	-4.619826	84.398676	-432.783070	-8.894729	80.971136	-32.425816	
752	3.7600	769.712828	1410.674179	-3.738708	830.635096	1439.627980	-339.194752	756.470184	1530.202218	-171.894130	757.745814	1358.002341	-177.827034	588.441959	1196.473261	97.899555	741.679397	986.882176	5.653113	664.464605	1242.524057	-498.487384	750.323281	980.696260	-424.410171	212.235874	1295.344425	-246.452140	405.519326	1315.877542	-406.980131	367.953416	1290.245356	-44.932933	415.453792	1239.247984	-366.386461	394.290667	1221.002997	-92.732388	243.295388	1336.402565	-191.666626	253.039041	1344.376423	-276.594196	278.479956	1181.725713	-50.974590	359.495134	1221.070733	-434.774607	288.070998	1029.311061	-30.248104	321.171077	946.984616	-23.199244	314.599355	861.742541	-32.911905	357.858888	952.623838	-26.505015	323.917845	736.695356	-64.224663	349.784190	714.581544	-176.543973	261.067298	585.229052	-32.705888	259.000312	495.921236	-39.245966	212.236233	421.059726	-41.107818	291.160153	487.899945	-59.058680	171.367506	299.978791	-56.062956	231.935287	311.939798	-125.374932	102.525249	297.627002	-95.156050	348.756136	107.262696	-107.772280	241.598790	158.906512	-34.997798	275.543418	168.602231	-146.380505	462.357899	1110.235664	-447.581751	536.309272	1065.444265	-440.704498	559.726831	1088.472883	-422.809450	578.054146	986.384137	-436.005064	662.989391	886.333980	-409.824496	647.975435	874.695782	-278.253967	520.131295	793.927277	-435.811195	461.833995	734.244873	-417.255791	375.016254	706.869801	-419.694844	477.284579	711.994224	-390.895406	263.938203	646.532379	-408.247062	290.039657	641.557562	-313.541132	179.127921	653.908799	-364.021599	409.192163	447.161591	-346.189612	331.032029	505.516223	-308.698483	307.807422	505.863479	-423.405104	-211.479699	947.528762	-227.134566	-4.594932	84.435119	-432.833647	-8.880562	81.046041	-32.434719	
753	3.7650	771.158174	1413.132483	-6.404454	830.797976	1440.151426	-341.770940	757.462134	1531.723074	-174.841103	757.969385	1359.541719	-179.927227	591.054020	1198.543363	96.958993	742.169999	986.587883	6.487883	663.898367	1242.403037	-499.546396	750.530321	981.008748	-424.240171	212.656024	1298.555926	-247.011842	405.231413	1318.402328	-407.377207	368.322145	1293.417803	-45.692806	415.216586	1241.621757	-366.412993	394.412309	1223.968821	-92.837870	243.760731	1339.336968	-191.813170	253.390036	1347.357495	-276.683112	277.939492	1184.729515	-51.196056	360.349976	1224.534025	-434.580942	287.343893	1031.948086	-30.328870	320.285869	949.586295	-23.172808	313.581902	864.394128	-33.044422	357.078801	955.216851	-26.478299	322.231037	738.981587	-64.117792	348.226878	717.397725	-177.643568	258.294634	588.138685	-32.811274	255.560461	498.876049	-39.413597	208.281835	424.337605	-41.250406	287.045778	490.435929	-59.466128	166.712798	303.515250	-56.076057	213.473499	309.879484	-130.590338	97.977831	302.184368	-95.771050	340.495809	107.386149	-107.991527	234.529907	161.209853	-35.544416	268.326167	169.716175	-147.035373	463.416982	1113.703809	-446.498071	537.185519	1068.845444	-438.873903	561.779888	1092.030949	-420.158268	579.012165	989.857532	-434.221637	664.919766	889.876350	-406.179089	648.622870	878.165954	-275.662550	522.621449	795.890218	-433.992483	465.018992	735.277386	-416.009682	379.152022	706.029414	-417.404258	480.685171	713.118380	-389.699361	268.349623	644.383444	-408.127433	294.133045	639.837585	-313.457366	183.084430	650.069249	-364.332382	418.060205	448.590207	-345.235111	336.813231	504.839606	-310.112017	315.259834	504.572655	-422.491513	-211.445810	947.605457	-227.309097	-4.580065	84.447703	-432.854474	-8.841720	81.090483	-32.439064	
754	3.7700	772.569820	1415.298914	-8.969169	830.913710	1440.441839	-344.208406	758.467579	1533.553091	-177.417150	758.199312	1360.821867	-182.043302	593.729075	1200.543946	96.033110	743.027427	986.526287	6.964384	663.273874	1242.179485	-500.587512	750.681008	981.234962	-424.054284	213.660443	1302.218144	-245.076436	405.010453	1320.685925	-407.806650	368.682158	1296.345244	-45.963178	414.986317	1243.705402	-366.428774	394.372543	1227.023530	-92.991374	244.498458	1341.980798	-192.312689	254.048394	1349.930245	-277.562026	277.387070	1187.641412	-51.440856	361.143772	1227.808231	-434.379510	286.951773	1034.468080	-30.490424	319.933697	952.165334	-23.246089	313.276521	866.998291	-33.114908	356.742743	957.797231	-26.424206	321.271843	741.227354	-63.773226	347.746838	719.848479	-177.808353	256.124695	590.901836	-32.944695	252.667624	501.908293	-39.501830	204.412142	427.645759	-41.562307	284.008563	493.227719	-59.509081	161.554072	307.180578	-56.407225	190.993939	306.606804	-137.300652	92.919834	306.588226	-96.463838	332.221036	108.179464	-108.206635	227.315249	163.869511	-36.047963	260.798619	171.004179	-148.033663	464.284516	1117.000794	-445.481836	538.023750	1072.126954	-437.296421	562.810913	1095.216347	-418.030870	579.778580	993.146101	-432.529254	666.101619	893.204577	-403.580904	648.963978	881.248562	-273.250426	524.926380	797.433637	-432.171636	468.195902	735.961004	-414.834481	382.736755	705.393034	-416.719907	484.001445	713.852622	-388.608084	272.851661	641.773455	-408.173259	298.282711	637.537330	-313.384277	186.907276	645.780094	-364.688715	426.393993	449.201010	-345.095083	348.911019	506.776166	-303.819902	322.549340	503.135414	-422.681270	-211.403618	947.685175	-227.477878	-4.558134	84.496259	-432.876325	-9.164676	81.558155	-32.387916	
755	3.7750	774.003287	1417.435131	-11.611366	831.022075	1440.535502	-346.631130	759.401366	1534.682482	-180.313064	758.296382	1361.831378	-184.178727	596.413803	1202.382300	95.211529	744.042370	986.531220	7.246427	662.544346	1241.903378	-501.683596	750.473433	981.318931	-424.164525	213.968537	1305.252973	-246.161879	404.868208	1322.747642	-408.245068	368.891588	1299.325867	-46.275886	414.747899	1245.610227	-366.320477	394.125651	1229.753828	-93.056652	244.785607	1344.722470	-192.690328	254.367582	1352.780146	-277.889388	276.773506	1190.532838	-51.624984	361.882110	1230.814184	-434.185803	286.975523	1036.847004	-30.744813	320.171424	954.594992	-23.414314	313.824418	869.509598	-33.173958	356.925628	960.423308	-26.466010	321.206087	743.441054	-63.309115	346.769903	722.789968	-178.221230	254.504697	593.578203	-32.961969	250.104272	504.638779	-39.593883	200.562400	431.071604	-42.006342	281.278699	495.567052	-59.577574	156.117314	311.117450	-56.930205	185.747289	310.242838	-137.854970	87.320827	311.112955	-97.362181	323.895893	109.491832	-108.349115	220.010315	166.881960	-36.657532	253.106079	172.777865	-148.875828	464.975767	1120.173174	-444.553813	538.719632	1075.111318	-435.678295	562.992786	1098.204953	-416.344203	580.312609	996.099884	-430.876366	667.032201	896.306275	-401.126001	649.266942	884.085342	-270.955883	527.060263	798.695520	-430.382192	471.331799	736.045440	-413.690828	386.296681	704.250615	-416.029243	487.279579	714.162511	-387.488288	277.144234	638.722131	-408.291145	302.415815	634.756811	-313.305056	191.365572	640.801121	-364.972476	434.696452	449.622805	-345.008642	352.954284	503.285810	-308.529533	329.829106	501.263025	-422.838631	-211.353544	947.762082	-227.665020	-4.528857	84.522215	-432.914764	-9.138064	81.633401	-32.415074	
